<?xml version="1.0" standalone="no"?><!DOCTYPE svg PUBLIC "-//W3C//DTD SVG 1.1//EN" "http://www.w3.org/Graphics/SVG/1.1/DTD/svg11.dtd"><svg t="1579590614082" class="icon" viewBox="0 0 1024 1024" version="1.1" xmlns="http://www.w3.org/2000/svg" p-id="15534" xmlns:xlink="http://www.w3.org/1999/xlink" width="32" height="32"><defs><style type="text/css"></style></defs><path d="M224 896h576c17.7 0 32 14.3 32 32s-14.3 32-32 32H224c-17.7 0-32-14.3-32-32s14.3-32 32-32zM896 64H128c-35.3 0-64 28.7-64 64v576c0 35.3 28.7 64 64 64h768c35.3 0 64-28.7 64-64V128c0-35.3-28.7-64-64-64z m0 640H128V576h768v128z m0-192H128V128h768v384z" fill="#606060" p-id="15535"></path></svg>