<?xml version="1.0" standalone="no"?><!DOCTYPE svg PUBLIC "-//W3C//DTD SVG 1.1//EN" "http://www.w3.org/Graphics/SVG/1.1/DTD/svg11.dtd"><svg t="1579581891329" class="icon" viewBox="0 0 1024 1024" version="1.1" xmlns="http://www.w3.org/2000/svg" p-id="2093" width="16" height="16" xmlns:xlink="http://www.w3.org/1999/xlink"><defs><style type="text/css"></style></defs><path d="M104 304A24 24 0 0 0 80 328v592A24 24 0 0 0 104 944h592a24 24 0 0 0 24-24v-592a24 24 0 0 0-24-24h-592z m0-48h592a72 72 0 0 1 72 72v592a72 72 0 0 1-72 72h-592A72 72 0 0 1 32 920v-592A72 72 0 0 1 104 256z" fill="#333333" p-id="2094"></path><path d="M304 256V104A24 24 0 0 1 328 80h592A24 24 0 0 1 944 104v592a24 24 0 0 1-24 24H768v48h152a72 72 0 0 0 72-72v-592A72 72 0 0 0 920 32h-592A72 72 0 0 0 256 104V256h48z" fill="#333333" p-id="2095"></path></svg>