<?xml version="1.0" standalone="no"?><!DOCTYPE svg PUBLIC "-//W3C//DTD SVG 1.1//EN" "http://www.w3.org/Graphics/SVG/1.1/DTD/svg11.dtd"><svg t="1579590517954" class="icon" viewBox="0 0 1024 1024" version="1.1" xmlns="http://www.w3.org/2000/svg" p-id="14790" xmlns:xlink="http://www.w3.org/1999/xlink" width="32" height="32"><defs><style type="text/css"></style></defs><path d="M512 512m-512 0a512 512 0 1 0 1024 0 512 512 0 1 0-1024 0Z" fill="#B7EB81" p-id="14791"></path><path d="M276.48 286.67904A40.92928 40.92928 0 0 1 317.46048 245.76h389.07904A40.94976 40.94976 0 0 1 747.52 286.67904v82.00192A40.92928 40.92928 0 0 1 706.53952 409.6H317.46048A40.94976 40.94976 0 0 1 276.48 368.68096v-82.00192z m0 368.64A40.92928 40.92928 0 0 1 317.46048 614.4h389.07904A40.94976 40.94976 0 0 1 747.52 655.31904v82.00192A40.92928 40.92928 0 0 1 706.53952 778.24H317.46048A40.94976 40.94976 0 0 1 276.48 737.32096v-82.00192z m0-184.32A40.92928 40.92928 0 0 1 317.46048 430.08h389.07904A40.94976 40.94976 0 0 1 747.52 470.99904v82.00192A40.92928 40.92928 0 0 1 706.53952 593.92H317.46048A40.94976 40.94976 0 0 1 276.48 553.00096v-82.00192z" fill="#FFFFFF" p-id="14792"></path><path d="M675.84 358.4a30.72 30.72 0 1 1 0-61.44 30.72 30.72 0 0 1 0 61.44z m0 184.32a30.72 30.72 0 1 1 0-61.44 30.72 30.72 0 0 1 0 61.44z m0 184.32a30.72 30.72 0 1 1 0-61.44 30.72 30.72 0 0 1 0 61.44z" fill="#00BB74" p-id="14793"></path></svg>