<?xml version="1.0" standalone="no"?><!DOCTYPE svg PUBLIC "-//W3C//DTD SVG 1.1//EN" "http://www.w3.org/Graphics/SVG/1.1/DTD/svg11.dtd"><svg t="1579586118495" class="icon" viewBox="0 0 1024 1024" version="1.1" xmlns="http://www.w3.org/2000/svg" p-id="4314" xmlns:xlink="http://www.w3.org/1999/xlink" width="10" height="10"><defs><style type="text/css"></style></defs><path d="M1023.90001 808.121082c0-22.097842-18.098233-40.196075-40.196075-40.196075H927.909384V607.940631c0-17.698272-14.298604-31.996875-31.996875-31.996876H543.94688V447.956254h151.785177c22.097842 0 40.196075-18.098233 40.196075-40.196074V40.196075C735.928132 18.098233 717.829899 0 695.732057 0H328.167952C306.07011 0 287.971878 18.098233 287.971878 40.196075v367.664095c0 22.097842 18.098233 40.196075 40.196074 40.196075H479.95313v127.987501H127.987501c-17.698272 0-31.996875 14.298604-31.996875 31.996875v152.98506c0 2.399766 0.299971 4.699541 0.799922 6.999317H40.196075C18.098233 767.925007 0 786.02324 0 808.121082v175.682843c0 22.097842 18.098233 40.196075 40.196075 40.196075h175.682843c22.097842 0 40.196075-18.098233 40.196075-40.196075V808.121082c0-22.097842-18.098233-40.196075-40.196075-40.196075h-56.594473c0.499951-2.299775 0.799922-4.599551 0.799922-6.999316V639.937506h319.968753v127.987501h-55.794552c-22.097842 0-40.196075 18.098233-40.196074 40.196075v175.682843c0 22.097842 18.098233 40.196075 40.196074 40.196075H599.941412c22.097842 0 40.196075-18.098233 40.196075-40.196075V808.121082c0-22.097842-18.098233-40.196075-40.196075-40.196075h-55.994532V639.937506h319.968753v127.987501h-55.794551c-22.097842 0-40.196075 18.098233-40.196075 40.196075v175.682843c0 22.097842 18.098233 40.196075 40.196075 40.196075h175.682843c22.097842 0 40.196075-18.098233 40.196075-40.196075l-0.09999-175.682843zM351.965628 63.993751h319.968753v319.968753H351.965628V63.993751zM191.981252 959.906259H63.993751V831.918758h127.987501v127.987501z m383.962503 0H447.956254V831.918758h127.987501v127.987501z m383.962504 0H831.918758V831.918758h127.987501v127.987501z" fill="#5A5B5C" p-id="4315"></path></svg>